<svg xmlns="http://www.w3.org/2000/svg" width="21.211" height="22.608" viewBox="0 0 21.211 22.608">
  <g id="Copy" transform="translate(-35 -19)">
    <path id="Path_371" data-name="Path 371" d="M47.713,20.512l1.746,1.746a1.741,1.741,0,0,1,.512,1.235V35.368a1.746,1.746,0,0,1-1.746,1.746H37.746A1.746,1.746,0,0,1,36,35.368V21.746A1.746,1.746,0,0,1,37.746,20h8.732A1.741,1.741,0,0,1,47.713,20.512Z" fill="none" stroke="#19276c" stroke-linecap="round" stroke-linejoin="round" stroke-miterlimit="10" stroke-width="2"/>
    <path id="Path_372" data-name="Path 372" d="M206.479,123.432l1.235,1.235a1.741,1.741,0,0,1,.512,1.235v11.876a1.746,1.746,0,0,1-1.746,1.746H196" transform="translate(-153.014 -98.916)" fill="none" stroke="#19276c" stroke-linecap="round" stroke-linejoin="round" stroke-miterlimit="10" stroke-width="2"/>
    <line id="Line_35" data-name="Line 35" x2="7.212" transform="translate(39.424 25.153)" fill="none" stroke="#19276c" stroke-linecap="round" stroke-linejoin="round" stroke-miterlimit="10" stroke-width="2"/>
    <line id="Line_36" data-name="Line 36" x2="7.212" transform="translate(39.424 28.587)" fill="none" stroke="#19276c" stroke-linecap="round" stroke-linejoin="round" stroke-miterlimit="10" stroke-width="2"/>
    <line id="Line_37" data-name="Line 37" x2="3.434" transform="translate(39.424 32.364)" fill="none" stroke="#19276c" stroke-linecap="round" stroke-linejoin="round" stroke-miterlimit="10" stroke-width="2"/>
  </g>
</svg>
