<svg xmlns="http://www.w3.org/2000/svg" width="29.697" height="36.167" viewBox="0 0 29.697 36.167">
  <g id="exit" transform="translate(-63.959 -18.75)">
    <g id="Group_84" data-name="Group 84" transform="translate(84.959 32.554)">
      <g id="Group_83" data-name="Group 83">
        <line id="Line_10" data-name="Line 10" x1="6.439" transform="translate(0 3.541)" fill="none" stroke="#19276c" stroke-linecap="round" stroke-linejoin="round" stroke-width="2.5"/>
        <path id="Path_313" data-name="Path 313" d="M397.127,196.141l3.54,3.541-3.54,3.541" transform="translate(-393.22 -196.141)" fill="none" stroke="#19276c" stroke-linecap="round" stroke-linejoin="round" stroke-width="2.5"/>
      </g>
    </g>
    <path id="Path_314" data-name="Path 314" d="M65.209,24.279A4.279,4.279,0,0,1,69.488,20H84.546a4.279,4.279,0,0,1,4.279,4.279v2.586" fill="none" stroke="#19276c" stroke-linecap="round" stroke-linejoin="round" stroke-width="2.5"/>
    <path id="Path_315" data-name="Path 315" d="M65.209,81.845V104.4a4.279,4.279,0,0,0,2.736,3.991l6.2,2.4a4.28,4.28,0,0,0,5.789-3.455h4.609a4.279,4.279,0,0,0,4.279-4.279v-.25" transform="translate(0 -57.437)" fill="none" stroke="#19276c" stroke-linecap="round" stroke-linejoin="round" stroke-width="2.5"/>
    <path id="Path_316" data-name="Path 316" d="M105.588,52.668V38.539a4.279,4.279,0,0,0-2.736-3.991L92.793,30.661" transform="translate(-25.618 -9.901)" fill="none" stroke="#19276c" stroke-linecap="round" stroke-linejoin="round" stroke-width="2.5"/>
  </g>
</svg>
