<svg xmlns="http://www.w3.org/2000/svg" width="430.538" height="264.817" viewBox="0 0 430.538 264.817">
  <g id="Group_222" data-name="Group 222" transform="translate(0.02 0)">
    <path id="Path_388" data-name="Path 388" d="M441.608,257.845a88.225,88.225,0,0,1-2.584,21.289q-.87,3.52-2.021,6.894a81.415,81.415,0,0,1-3.261,8.159q-.932,2.018-1.97,3.955a53.207,53.207,0,0,1-4.449,21.38,55.119,55.119,0,0,1-26.75,27.561,56.267,56.267,0,0,1-23.88,5.483H92.807a71.527,71.527,0,0,1-35.976-9.617l-.168-.1q-2.336-1.367-4.555-2.9a71.43,71.43,0,0,1-9.347-7.705,69.554,69.554,0,0,1-10.275-12.732A67.938,67.938,0,0,1,22.036,283.25,85.538,85.538,0,0,1,11.07,240.892c0-19.739,6.419-37.745,16.964-51.375a72.227,72.227,0,0,1,7.2-8.016,67.045,67.045,0,0,1,8.239-6.744,64.105,64.105,0,0,1,7.311-4.386c1.056-.537,2.116-1.045,3.195-1.517.947-.42,1.9-.811,2.873-1.181q1.744-.662,3.531-1.217t3.527-.972q2.559-.625,5.205-1.016c1.462-.216,2.924-.366,4.386-.479,1.162-.088,2.336-.135,3.516-.15h.64c1.3,0,2.6.051,3.878.139.135-.27.281-.545.417-.811.512-.976,1.042-1.948,1.575-2.9a.092.092,0,0,1,0-.026c.091-.168.183-.333.278-.493.431-.779.881-1.55,1.342-2.314.212-.366.42-.709.636-1.053a2.8,2.8,0,0,1,.15-.249q.329-.548.669-1.1,1.692-2.7,3.52-5.315l.311-.446c.19-.27.366-.534.578-.8.5-.705,1.023-1.415,1.546-2.109.366-.5.731-.991,1.126-1.462q1.426-1.828,2.924-3.655t3.114-3.608c.146-.164.292-.325.446-.486l1.561-1.7h0c.077-.08.143-.154.216-.227h0c.186-.2.366-.4.567-.6.837-.888,1.7-1.758,2.559-2.625a139.338,139.338,0,0,1,14-12.2c.194-.154.391-.3.585-.446.928-.7,1.872-1.389,2.815-2.069a148.15,148.15,0,0,1,16.233-10.125c.387-.223.782-.431,1.181-.636a154.989,154.989,0,0,1,15.531-7.15c2.891-1.144,5.848-2.219,8.824-3.2,1.981-.651,3.97-1.268,5.984-1.85q4.723-1.36,9.511-2.438a169.369,169.369,0,0,1,28.6-3.9q4.386-.223,8.871-.23a169.974,169.974,0,0,1,42.767,5.41,1.542,1.542,0,0,0,1.327.691h1.228c.534.146,1.064.292,1.6.446q4.47,1.287,8.813,2.811l.731.263a157.341,157.341,0,0,1,20.8,9.138,150.116,150.116,0,0,1,17.418,10.761q1.283.921,2.529,1.857,1.513-.969,3.078-1.857a60.54,60.54,0,0,1,12.75-5.435,58.156,58.156,0,0,1,28.6-1.119A63.283,63.283,0,0,1,390.89,128.8,74.769,74.769,0,0,1,400.5,141c.2.314.4.632.6.954a80.419,80.419,0,0,1,6.119,12.2c.062.157.124.3.179.457a84.464,84.464,0,0,1,3.765,12.19c.044.212.1.42.139.632a87.771,87.771,0,0,1,1.8,12.2,2.363,2.363,0,0,0,.029.45q.23,3.184.234,6.433c0,1.937-.066,3.86-.186,5.768,0,.208-.029.424-.048.64-.033.552-.08,1.1-.128,1.652a69.371,69.371,0,0,1,7.815,7.373q1.6,1.744,3.092,3.619a76.988,76.988,0,0,1,7.969,12.2A85.6,85.6,0,0,1,441.608,257.845Z" transform="translate(-11.09 -87.76)" fill="#ed6b86" opacity="0.1"/>
    <path id="Path_389" data-name="Path 389" d="M479.44,769.948c0,2.5-8.6,4.836-23.61,6.846H171.944a71.528,71.528,0,0,1-35.976-9.617l-.168-.1c4.313-1.572,12.1-3.038,22.7-4.361h0l.475-.058c4.752-.581,10.063-1.133,15.868-1.656a3.633,3.633,0,0,0,.442-.04h0q6.909-.614,14.7-1.151c.165,0,.325-.029.49-.036q3-.216,6.134-.409h0l.8-.051c15.188-.943,32.452-1.7,51.174-2.193h.022q3.933-.11,7.95-.194,4.467-.106,9.043-.186c2.328-.051,4.686-.088,7.051-.124h.055c10.67-.161,21.694-.241,32.967-.241,27.875,0,54.223.508,77.569,1.422h.066c3.59.139,7.113.292,10.549.45l2.924.139q5.816.278,11.331.6h0C451.353,761.446,479.44,765.441,479.44,769.948Z" transform="translate(-90.227 -511.978)" fill="#ed6b86" opacity="0.1"/>
    <g id="Group_219" data-name="Group 219" transform="translate(227.111 144.38)" opacity="0.2">
      <path id="Path_390" data-name="Path 390" d="M677.811,742.7a6.938,6.938,0,0,1-.135,1.173q-3.816-.607-7.676-1.1v-.314a6.17,6.17,0,0,1,.914-3.1,3.4,3.4,0,0,1,6.188.19,6.167,6.167,0,0,1,.709,3.147Z" transform="translate(-656.271 -644.358)" fill="#3f3d56"/>
      <ellipse id="Ellipse_65" data-name="Ellipse 65" cx="5.121" cy="3.911" rx="5.121" ry="3.911" transform="translate(13.771 96.97) rotate(-88.19)" fill="#3f3d56"/>
      <ellipse id="Ellipse_66" data-name="Ellipse 66" cx="5.121" cy="3.911" rx="5.121" ry="3.911" transform="translate(13.971 90.712) rotate(-88.19)" fill="#3f3d56"/>
      <ellipse id="Ellipse_67" data-name="Ellipse 67" cx="5.121" cy="3.911" rx="5.121" ry="3.911" transform="translate(14.166 84.454) rotate(-88.19)" fill="#3f3d56"/>
      <ellipse id="Ellipse_68" data-name="Ellipse 68" cx="5.121" cy="3.911" rx="5.121" ry="3.911" transform="translate(14.362 78.196) rotate(-88.19)" fill="#3f3d56"/>
      <path id="Path_391" data-name="Path 391" d="M637.569,512.649a18.155,18.155,0,0,1-1.389-2.193l10.33-1.363-11.119-.267a18.781,18.781,0,0,1,.113-14.855l14.665,8.206-13.433-10.542a18.744,18.744,0,1,1,30.281,21.932,18.566,18.566,0,0,1,2.029,3.484l-13.557,6.506,14.376-4.324a18.766,18.766,0,0,1-3.59,17.513,18.744,18.744,0,1,1-29.447-.928,18.744,18.744,0,0,1,.731-23.167Z" transform="translate(-632.44 -482.747)" fill="#ed6b86"/>
      <path id="Path_392" data-name="Path 392" d="M670.66,598.6a18.643,18.643,0,0,1-4.386,11.456,18.744,18.744,0,1,1-29.447-.928C634.425,605.865,670.726,596.5,670.66,598.6Z" transform="translate(-632.44 -556.06)" opacity="0.1"/>
    </g>
    <g id="Group_220" data-name="Group 220" transform="translate(171.55 144.38)" opacity="0.2">
      <path id="Path_393" data-name="Path 393" d="M525.811,742.7a6.938,6.938,0,0,1-.135,1.173q-3.816-.607-7.676-1.1v-.314a6.17,6.17,0,0,1,.914-3.1,3.4,3.4,0,0,1,6.188.19,6.167,6.167,0,0,1,.709,3.147Z" transform="translate(-504.271 -644.358)" fill="#3f3d56"/>
      <ellipse id="Ellipse_69" data-name="Ellipse 69" cx="5.121" cy="3.911" rx="5.121" ry="3.911" transform="translate(13.767 96.972) rotate(-88.19)" fill="#3f3d56"/>
      <ellipse id="Ellipse_70" data-name="Ellipse 70" cx="5.121" cy="3.911" rx="5.121" ry="3.911" transform="translate(13.966 90.714) rotate(-88.19)" fill="#3f3d56"/>
      <ellipse id="Ellipse_71" data-name="Ellipse 71" cx="5.121" cy="3.911" rx="5.121" ry="3.911" transform="translate(14.162 84.456) rotate(-88.19)" fill="#3f3d56"/>
      <ellipse id="Ellipse_72" data-name="Ellipse 72" cx="5.121" cy="3.911" rx="5.121" ry="3.911" transform="translate(14.358 78.198) rotate(-88.19)" fill="#3f3d56"/>
      <path id="Path_394" data-name="Path 394" d="M485.569,512.649a18.153,18.153,0,0,1-1.389-2.193l10.33-1.363-11.12-.267a18.781,18.781,0,0,1,.113-14.855l14.665,8.206-13.433-10.542a18.744,18.744,0,1,1,30.281,21.932,18.571,18.571,0,0,1,2.029,3.484l-13.558,6.506,14.376-4.324a18.766,18.766,0,0,1-3.59,17.513,18.744,18.744,0,1,1-29.447-.928,18.744,18.744,0,0,1,.731-23.167Z" transform="translate(-480.44 -482.747)" fill="#ed6b86"/>
      <path id="Path_395" data-name="Path 395" d="M518.66,598.6a18.642,18.642,0,0,1-4.386,11.456,18.744,18.744,0,1,1-29.447-.928C482.425,605.865,518.726,596.5,518.66,598.6Z" transform="translate(-480.44 -556.06)" opacity="0.1"/>
    </g>
    <g id="Group_221" data-name="Group 221" transform="translate(303.414 57.463)" opacity="0.2">
      <path id="Path_396" data-name="Path 396" d="M928.417,745.189a13.647,13.647,0,0,1-.267,2.222q-7.347-1.173-14.8-2.1v-.6a11.88,11.88,0,0,1,1.762-5.969,6.555,6.555,0,0,1,11.927.366,11.891,11.891,0,0,1,1.378,6.082Z" transform="translate(-886.972 -555.929)" fill="#3f3d56"/>
      <ellipse id="Ellipse_73" data-name="Ellipse 73" cx="9.862" cy="7.534" rx="9.862" ry="7.534" transform="translate(26.473 186.608) rotate(-88.19)" fill="#3f3d56"/>
      <ellipse id="Ellipse_74" data-name="Ellipse 74" cx="9.862" cy="7.534" rx="9.862" ry="7.534" transform="translate(26.853 174.56) rotate(-88.19)" fill="#3f3d56"/>
      <ellipse id="Ellipse_75" data-name="Ellipse 75" cx="9.862" cy="7.534" rx="9.862" ry="7.534" transform="translate(27.237 162.512) rotate(-88.19)" fill="#3f3d56"/>
      <ellipse id="Ellipse_76" data-name="Ellipse 76" cx="9.862" cy="7.534" rx="9.862" ry="7.534" transform="translate(27.195 149.943) rotate(-88.282)" fill="#3f3d56"/>
      <path id="Path_397" data-name="Path 397" d="M851.031,302.465a36.3,36.3,0,0,1-2.672-4.215l19.885-2.625-21.4-.515a36.151,36.151,0,0,1,.212-28.6l28.237,15.795-25.858-20.294a36.085,36.085,0,1,1,58.291,42.241,36.083,36.083,0,0,1,3.907,6.707l-26.1,12.534L913.2,315.16a36.1,36.1,0,0,1-6.883,33.684,36.085,36.085,0,1,1-56.694-1.787,36.1,36.1,0,0,1,1.4-44.595Z" transform="translate(-841.186 -244.965)" fill="#ed6b86"/>
      <path id="Path_398" data-name="Path 398" d="M914.769,467.813a35.947,35.947,0,0,1-8.407,22.056,36.085,36.085,0,1,1-56.694-1.787C845.011,481.791,914.9,463.767,914.769,467.813Z" transform="translate(-841.211 -385.984)" opacity="0.1"/>
    </g>
    <path id="Path_399" data-name="Path 399" d="M157.82,268.538l3.834-.011h5.406L173.9,157.486l67.693-112.96-2.943-3.158v-8l-73.209,121.5Z" transform="translate(-100.144 -21.172)" fill="#f1c0c0"/>
    <path id="Path_400" data-name="Path 400" d="M169.43,282.41h5l6.835-111.041,67.693-112.96-2.943-3.158L176.189,169.676Z" transform="translate(-107.511 -35.055)" opacity="0.1"/>
    <path id="Path_401" data-name="Path 401" d="M126.91,665.784l175.4,13.422.15.011,169.749-10.44.128-.007V661.6L285.295,658.17l-156.049-.15h-1.14l-.124.8Z" transform="translate(-80.533 -417.493)" fill="#f1c0c0"/>
    <path id="Path_402" data-name="Path 402" d="M126.91,665.784l175.4,13.422.15.011,169.749-10.44.128-.139v-6.887h-.15L302.31,667.425,129.246,658.02h-.026l-.307.2-.932.6Z" transform="translate(-80.533 -417.493)" opacity="0.1"/>
    <path id="Path_403" data-name="Path 403" d="M126.91,666.133l175.4,13.422V667.774l-173.4-9.2-.932.6Z" transform="translate(-80.533 -417.842)" opacity="0.1"/>
    <path id="Path_404" data-name="Path 404" d="M378.88,41.364l77.328,83-2.391,145.993,6.569.793.11.015h6.569l.786-140.532L612.648,179l2.442,86.119,5.286.592,1.791.2-4.145-92.885L466.655,119.884l-83-86.284H378.88Z" transform="translate(-240.4 -21.318)" fill="#f1c0c0"/>
    <path id="Path_405" data-name="Path 405" d="M620.65,291.7l.6,2.687,144.8,48.367,2.442,86.119,5.286.592-4.145-88.5Z" transform="translate(-393.795 -185.075)" opacity="0.1"/>
    <path id="Path_406" data-name="Path 406" d="M378.88,41.364l77.328,83-2.391,145.993,6.569.793,1.791-151.564L378.88,33.6Z" transform="translate(-240.4 -21.318)" opacity="0.1"/>
    <path id="Path_407" data-name="Path 407" d="M621.42,435.532l53.108,10.458.018,0,93.017,18.324,4.258-1.707-.015-.3-.278-5.94L621.475,426.05Z" transform="translate(-394.284 -270.315)" fill="#f1c0c0"/>
    <path id="Path_408" data-name="Path 408" d="M766.76,480.61l93.017,18.324,4.258-1.707-.015-.3Z" transform="translate(-486.498 -304.932)" opacity="0.1"/>
    <path id="Path_409" data-name="Path 409" d="M776.49,350.56l1.437,79.079.742,40.57,6.539-.219,4.116-.139L788.044,351.7l-2.837-.943-.621-.2Z" transform="translate(-492.671 -222.419)" fill="#f1c0c0"/>
    <path id="Path_410" data-name="Path 410" d="M776.65,350.51v.018l1.378,79.079.742,40.57,6.539-.219V350.51Z" transform="translate(-492.772 -222.388)" opacity="0.1"/>
    <path id="Path_411" data-name="Path 411" d="M488.64,484.832a8.33,8.33,0,0,1,1.1.713,7.257,7.257,0,0,1,1.1,1.2c1.568,2.029,3.016,4.386,2.862,6.945a2.826,2.826,0,0,1-.815,2.01,3.653,3.653,0,0,1-2.423.578,5.16,5.16,0,0,1-2.687-.475c-.8-.475-1.462-1.4-2.405-1.378a1.233,1.233,0,0,1-.4,0c-.325-.106-.391-.534-.6-.8-.366-.486-1.137-.366-1.711-.154a2.48,2.48,0,0,1-1.776.285,1.846,1.846,0,0,1-.771-.771c-1.356-2.193-1.645-4.829-1.9-7.376-.157-1.55-1.356-6.835,1.952-5.633a27.431,27.431,0,0,1,4.16,2.35Z" transform="translate(-307.254 -336.496)" fill="#3f3d56"/>
    <path id="Path_412" data-name="Path 412" d="M497.242,491.544a1.63,1.63,0,0,0,2.007-.08,3.023,3.023,0,0,0,.976-1.893c.366-.113.552.366.786.658.409.5,1.243.49,1.616,1.02.26.366.2.874.384,1.287.238.534.826.811,1.228,1.243a4.233,4.233,0,0,1,.8,1.6l.6,1.8a8.889,8.889,0,0,1,.548,2.328,3.016,3.016,0,0,1-.695,2.226,5.9,5.9,0,0,1-4.445.8,3.279,3.279,0,0,1-1.97-2.413,30.462,30.462,0,0,1-.406-3.224,12.636,12.636,0,0,0-.914-3.063c-.322-.76-1.206-1.893-1.192-2.7C496.833,491.131,497.023,491.373,497.242,491.544Z" transform="translate(-319.124 -342.685)" fill="#3f3d56"/>
    <path id="Path_413" data-name="Path 413" d="M493.345,476.692a6.033,6.033,0,0,1-.3-1.6,6.986,6.986,0,0,1,1.005-3.107l-4.178.567a1.85,1.85,0,0,0-1.352.592,1.462,1.462,0,0,0,0,1.349,6.9,6.9,0,0,1,.5,1.3,6.516,6.516,0,0,0,.135,1.173,2.485,2.485,0,0,0,.537.757,25.345,25.345,0,0,1,2.983,4.43c-.026-.044,2.519-2.014,2.416-2.657-.059-.366-.793-.8-1.027-1.155A5.88,5.88,0,0,1,493.345,476.692Z" transform="translate(-313.915 -331.536)" fill="#be6f72"/>
    <path id="Path_414" data-name="Path 414" d="M457.188,358.04v3.6l-61.654,12.026-3.2,1.937H381.3v-2.029l60.576-14.636Z" transform="translate(-241.935 -227.165)" fill="#f1c0c0"/>
    <path id="Path_415" data-name="Path 415" d="M457.188,367.89l-61.654,12.026-3.2,1.937H381.3l61.026-13.06Z" transform="translate(-241.935 -233.415)" opacity="0.1"/>
    <path id="Path_416" data-name="Path 416" d="M446.757,722.407a4.778,4.778,0,0,0-5.812-1.236,1.531,1.531,0,0,0-.534.417c-.366.512-.132,1.217-.1,1.85.084,1.543-1.144,2.8-2.248,3.875a5.315,5.315,0,0,0-1.462,1.981,1.856,1.856,0,0,0,.647,2.193,2.7,2.7,0,0,0,1,.278,10.81,10.81,0,0,0,3.546.1,3.842,3.842,0,0,0,2.815-1.959,2.066,2.066,0,0,1,.472-.779c.643-.508,1.63.088,2.361-.274.6-.3.629-.771.636-1.393A8.064,8.064,0,0,0,446.757,722.407Z" transform="translate(-281.005 -489.322)" fill="#ed6b86"/>
    <path id="Path_417" data-name="Path 417" d="M474.845,717.66a12.035,12.035,0,0,1,.57,3.739,3.608,3.608,0,0,1-.34,2.131,2.912,2.912,0,0,1-1.9,1.1,4.366,4.366,0,0,1-4.273-1.192,4.509,4.509,0,0,1-.771-3.392c.117-.983.366-2.135-.34-2.833-.183-.186-.42-.318-.589-.519a1.742,1.742,0,0,1-.11-1.667,7.238,7.238,0,0,0,.574-1.648c.029-.271,4.949.19,5.4.413.618.3.523.812.709,1.426C474.033,716.07,474.53,716.842,474.845,717.66Z" transform="translate(-300.32 -484.642)" fill="#ed6b86"/>
    <path id="Path_418" data-name="Path 418" d="M449.87,579.619a4.061,4.061,0,0,1,1.488,2.994c.413,3.125-.311,6.283-.366,9.438-.051,4.419,1.228,8.919.135,13.2-.654,2.559-.1,5.483-.713,8.067-.183.768-.519,1.491-.695,2.259a9.857,9.857,0,0,0,.534,5.03,5.2,5.2,0,0,1,.311,1.363,4.905,4.905,0,0,1-.534,2.062l-2.193,5.187c-.245.581-1.21.676-1.828.753a4.571,4.571,0,0,1-3.385-.483,4.33,4.33,0,0,1-1.29-3.052,46.788,46.788,0,0,1-.366-6.517,5.369,5.369,0,0,0-.15-1.692,14.84,14.84,0,0,1-.764-1.828,7.341,7.341,0,0,1,.442-2.559,7.708,7.708,0,0,0-.037-2.372c-.143-1.17-.307-2.339-.493-3.5a15.52,15.52,0,0,1,.366-4.862,13.4,13.4,0,0,0-.366-4.613,12.717,12.717,0,0,1-.457,3.655c-.194.581-.472,1.137-.64,1.729-.749,2.657.848,5.446.621,8.2-.106,1.287-.61,2.559-.468,3.827a12.911,12.911,0,0,0,.826,2.665,3.454,3.454,0,0,1,0,2.723c-1.188,2.244-.3,5.3.764,7.6a10.262,10.262,0,0,1,.563,1.265,15.112,15.112,0,0,1,.135,3.235,2.04,2.04,0,0,1-1.714-.515c-.161-.168-.292-.366-.45-.541a4.463,4.463,0,0,0-1.528-.954,2.007,2.007,0,0,0-1.1-.252,2.194,2.194,0,0,0-1.042.647,10.2,10.2,0,0,1-1.148.874,1.36,1.36,0,0,1-.585.26.515.515,0,0,1-.537-.274.651.651,0,0,1-.04-.19,28.927,28.927,0,0,1-.216-3.326c0-1.912-2.288-3.228-2.577-5.117-.23-1.524.2-3.078.055-4.613a22.432,22.432,0,0,1-.274-2.354c0-.512.117-1.013.157-1.521a11.368,11.368,0,0,0-.026-1.692l-.113-1.766a15.255,15.255,0,0,0-.917-5.117,17.389,17.389,0,0,1-1.426-5.878c-.073-1.279-.026-2.559-.172-3.842a18.917,18.917,0,0,1-.34-3.473c.069-.9.366-1.769.435-2.668a13.636,13.636,0,0,0-1.031-5.066,7.5,7.5,0,0,1-.219-5.088,1.671,1.671,0,0,1,.468-.68,2.039,2.039,0,0,1,.863-.322,66.934,66.934,0,0,1,19.088-1.217A6.338,6.338,0,0,1,449.87,579.619Z" transform="translate(-274.442 -399.112)" fill="#3f3d56"/>
    <circle id="Ellipse_77" data-name="Ellipse 77" cx="5.856" cy="5.856" r="5.856" transform="translate(148.821 129.972)" fill="#be6f72"/>
    <path id="Path_419" data-name="Path 419" d="M427.259,469.4a2.091,2.091,0,0,1,0,1.02,2.312,2.312,0,0,1-.384.643A16.525,16.525,0,0,1,425,473.1a3.4,3.4,0,0,0,1.751,1.729,10.164,10.164,0,0,0,2.416.691,2.533,2.533,0,0,0,2.369-.409l3.253-1.948a6.5,6.5,0,0,0,1.352-.976,3.33,3.33,0,0,0,.943-2.288.629.629,0,0,0-.117-.431.768.768,0,0,0-.446-.186,3.964,3.964,0,0,1-2.559-2.233,11.827,11.827,0,0,1-.888-3.388l-3.469,1.828c-.515.274-1.027.548-1.561.786-.34.154-1.027.281-1.268.592C426.316,467.44,427.138,468.708,427.259,469.4Z" transform="translate(-273.715 -326.257)" fill="#be6f72"/>
    <path id="Path_420" data-name="Path 420" d="M422.948,480.1a3.856,3.856,0,0,0-1.122,1.517,3.953,3.953,0,0,0,.2,2.226,66.414,66.414,0,0,1,2.193,9.427c.307,2.193.42,4.419.57,6.638.307,4.525.753,11.741,1.349,16.237,2.193.1,4.332-.541,6.506-.775,4.065-.431,8.25.556,12.231-.366-.965-3.813-1.93-10.323-2.9-14.131a26.963,26.963,0,0,1-.885-4.587c-.084-1.115-.033-2.233-.018-3.356.033-2.193-.088-4.386-.208-6.58a41.746,41.746,0,0,0-.885-7.621,1.419,1.419,0,0,0-.424-.837,1.717,1.717,0,0,0-1.276-.113,5.549,5.549,0,0,1-3.794-.9c-.482-.329-1.129-.731-1.579-.366a1.572,1.572,0,0,0-.366.779,3.893,3.893,0,0,1-2.288,2.255,11.453,11.453,0,0,1-3.239.665,1.59,1.59,0,0,1-1.005-.113c-.519-.318-.556-1.462-1.21-1.539C424.235,478.5,423.336,479.735,422.948,480.1Z" transform="translate(-271.642 -334.323)" fill="#3f3d56"/>
    <path id="Path_421" data-name="Path 421" d="M420.337,489.451c-1.349-1.29-1.941-3.162-2.924-4.752a10.578,10.578,0,0,0-2.526-2.778,7.533,7.533,0,0,1-1.374-1.166c-.347-.428-.61-1-1.137-1.162a1.374,1.374,0,0,0-1.232.34,12.113,12.113,0,0,0-.914.972c-1.55,1.6-4.273,1.828-5.5,3.685a3.019,3.019,0,0,0-.654,1.371,10.623,10.623,0,0,0,1.952,7.64,2.6,2.6,0,0,0,1.352,1.1,4.232,4.232,0,0,0,.263,2.01,53.756,53.756,0,0,0,2.489,6.781,16.405,16.405,0,0,0-.49,2.628c-.256,2.233-.018,4.5-.26,6.737-.2,1.828-.731,3.608-.749,5.439,0,.292.026.64.278.79a.841.841,0,0,0,.435.091l4.5.135a36.494,36.494,0,0,0,7.815-.329,3.253,3.253,0,0,0,.983-.311,3.3,3.3,0,0,0,1.3-2.559,22.3,22.3,0,0,0,.216-3.823c.545,1.722,1.192,3.5,2.837,4.247a6.364,6.364,0,0,0,2.818.34,53.07,53.07,0,0,0,6.137-.632.808.808,0,0,0,.9-.939l.022-2c.044-4.054-.961-7.928-1.352-11.964a26.015,26.015,0,0,0-.424-3.805c-.128-.523-.314-1.034-.428-1.561a11.163,11.163,0,0,1-.183-1.561l-.285-4.021c-.135-1.861-.329-3.655-.472-5.512a26.685,26.685,0,0,0-.782-5.359c-.318-1.1-.98-2.339-2.124-2.475a4.377,4.377,0,0,0-1.784.384,7.208,7.208,0,0,1-4.386-.018,6.179,6.179,0,0,0-1.367-.366,1.342,1.342,0,0,0-1.25.519,1.875,1.875,0,0,0-.194.921A48.755,48.755,0,0,1,420.337,489.451Z" transform="translate(-260.382 -334.744)" fill="#ed6b86"/>
    <path id="Path_422" data-name="Path 422" d="M415.021,501.973a22.193,22.193,0,0,0-5.585-4.715,4.461,4.461,0,0,0-2.774-.614,2.077,2.077,0,0,0-1.784,1.952,12.624,12.624,0,0,0,.5,1.707,17.932,17.932,0,0,0,.146,2,3.378,3.378,0,0,0,.731,1.122l2.588,3.067a16.66,16.66,0,0,0,3.6,3.462,5.418,5.418,0,0,0,4.788.669,5.885,5.885,0,0,0,2.625-2.409c.643-1.023,1.1-2.142,1.7-3.2a15.882,15.882,0,0,1,3.655-4.434,4.061,4.061,0,0,1-2.193-1.1,3.623,3.623,0,0,1-.347-.629l-.592-1.279a1.462,1.462,0,0,0-1.1.413,9.191,9.191,0,0,1-.815.83c-.515.387-1.214.493-1.681.936a4.455,4.455,0,0,0-.49.614,4.1,4.1,0,0,1-2.983,1.608Z" transform="translate(-260.947 -347.156)" fill="#3f3d56"/>
    <path id="Path_423" data-name="Path 423" d="M454.147,472.353c1.268-2.314,1.21-5.088,1.572-7.7a3.516,3.516,0,0,1,.7-1.912c.731-.826,2.021-.837,3.125-.731.325.037.731.19.713.515a.658.658,0,0,1-.164.311,8.7,8.7,0,0,0-1.806,4.8c.574.4,1.462-.42,2.014,0,.366.307.2.914-.022,1.352q-.764,1.524-1.575,3.027a9.72,9.72,0,0,1-1.67,2.409c-.464.446-1.009.8-1.48,1.235-1.1,1.027-1.758,2.478-2.891,3.48a.592.592,0,0,1-.366.186.614.614,0,0,1-.384-.172,5.542,5.542,0,0,1-1.382-1.671c-.431-.8-.366-1.031.314-1.594A12.082,12.082,0,0,0,454.147,472.353Z" transform="translate(-289.74 -325.18)" fill="#be6f72"/>
    <path id="Path_424" data-name="Path 424" d="M414.931,498.515c.219.135.49.289.731.175a.76.76,0,0,0,.245-.238,8.6,8.6,0,0,0,1.038-1.806.694.694,0,0,0,.077-.292c0-.234-.208-.406-.4-.541a14.9,14.9,0,0,0-3.323-1.579,6.856,6.856,0,0,0-3-.592,2.858,2.858,0,0,0-2,1.016c-.731.939.493,1.225,1.261,1.564A48.752,48.752,0,0,1,414.931,498.515Z" transform="translate(-262.978 -345.27)" fill="#ed6b86"/>
    <path id="Path_425" data-name="Path 425" d="M423.67,518.244a.537.537,0,0,0,.154.461c.106-.519-.033-1.067.077-1.59.161-.786.925-1.378.991-2.168C423.491,514.672,423.681,517.4,423.67,518.244Z" transform="translate(-272.868 -358.784)" opacity="0.1"/>
    <path id="Path_426" data-name="Path 426" d="M562.332,358.04v3.6l-14.863.9-.45-3.6Z" transform="translate(-347.08 -227.165)" opacity="0.2"/>
    <path id="Path_427" data-name="Path 427" d="M416.76,446.719c.928-.757.391-2.343,1.02-3.359a3.264,3.264,0,0,1,1.59-1.1,7.233,7.233,0,0,1,2.321-.643,2.694,2.694,0,0,1,2.193.808c.238.271.4.6.621.881a2.376,2.376,0,0,0,2.3.8c.486-.11.991-.479.958-.976a1.378,1.378,0,0,0-.439-.782l-1.045-1.159c-1.188-1.316-2.508-2.712-4.251-3.041a7.293,7.293,0,0,0-3.626.486c-.472.157-1,.391-1.133.87-.088.329.044.687-.033,1.02-.15.662-1,.885-1.393,1.44s-.274,1.214-.387,1.828a15.979,15.979,0,0,0-.483,1.85c-.026.384.168,1.1.6,1.235S416.493,446.262,416.76,446.719Z" transform="translate(-267.354 -310.021)" fill="#3f3d56"/>
    <path id="Path_428" data-name="Path 428" d="M426.872,437.394a10.966,10.966,0,0,0-1.945-4.445,7.789,7.789,0,0,0-3.462-2.749,4.957,4.957,0,0,0-4.31.34A6.258,6.258,0,0,0,415,433.256c-.947,2.04-1.3,4.533-.2,6.492.439-.534,1.192-.292,1.857-.486a19.354,19.354,0,0,0,2.332-1.14C421.389,437.065,424.313,437.92,426.872,437.394Z" transform="translate(-266.814 -304.812)" fill="#fed253"/>
    <path id="Path_429" data-name="Path 429" d="M417.342,446.727a2.234,2.234,0,0,1,.329-1.89.238.238,0,0,1,.194-.088.252.252,0,0,1,.15.132,8.183,8.183,0,0,1,.687,1.345,1.4,1.4,0,0,0-1.462.567" transform="translate(-268.792 -314.259)" opacity="0.1"/>
    <path id="Path_430" data-name="Path 430" d="M440.592,441.926l-.132-1.3a.6.6,0,0,1,.026-.322.413.413,0,0,1,.534-.146,1.1,1.1,0,0,1,.428.428,7.678,7.678,0,0,1,.753,1.488,4.422,4.422,0,0,0-1.78.022" transform="translate(-283.499 -311.315)" opacity="0.1"/>
    <path id="Path_431" data-name="Path 431" d="M411.385,502.21v2.983l-2.519.168H395.62V502.21Z" transform="translate(-251.021 -318.637)" opacity="0.1"/>
    <path id="Path_432" data-name="Path 432" d="M338.688,412.312v3.151H322.923L281.04,363V360.52h8.78Z" transform="translate(-178.324 -228.739)" fill="#f1c0c0"/>
    <path id="Path_433" data-name="Path 433" d="M338.688,412.312v3.151H322.923L281.04,363V360.52h8.78Z" transform="translate(-178.324 -228.739)" opacity="0.1"/>
    <path id="Path_434" data-name="Path 434" d="M338.688,412.312v3.151H322.923L281.04,363V360.52l42.109,51.792Z" transform="translate(-178.324 -228.739)" opacity="0.1"/>
    <path id="Path_435" data-name="Path 435" d="M299.57,729.537a1.1,1.1,0,0,1-.958,1.29,6.513,6.513,0,0,0-2.815,1.462,2.011,2.011,0,0,0,0,2.855,2.774,2.774,0,0,0,1.462.4,9.907,9.907,0,0,0,4.884-.61c1.075-.5,2.087-1.345,3.268-1.268.61.036,1.261.322,1.806.044s.7-1.053.7-1.7a12.586,12.586,0,0,0-.6-3.981,15.974,15.974,0,0,0-2.657-.366l-2.818-.366c-.534-.069-1.685-.471-2.105-.026S299.57,729.007,299.57,729.537Z" transform="translate(-191.363 -493.378)" fill="#ed6b86"/>
    <path id="Path_436" data-name="Path 436" d="M352.99,699.448a8.831,8.831,0,0,0,.578,1.915,4.459,4.459,0,0,0,1.85,2.533,3.3,3.3,0,0,0,2.822-.135,2.324,2.324,0,0,0,.939-.713,2.829,2.829,0,0,0,.366-1.641,8.966,8.966,0,0,0-.731-4.134c-.556-1.1-1.524-2.04-1.539-3.253l-3.33.643a.951.951,0,0,0-.49.194.844.844,0,0,0-.212.4A10.882,10.882,0,0,0,352.99,699.448Z" transform="translate(-227.966 -472.413)" fill="#ed6b86"/>
    <path id="Path_437" data-name="Path 437" d="M244.262,603.392a5.441,5.441,0,0,0,.534,3.454,2.673,2.673,0,0,0,3.027,1.283.442.442,0,0,0,.274-.208.515.515,0,0,0-.048-.365,5.4,5.4,0,0,1,.113-4.065c.073-.168.23-.366.4-.3a.366.366,0,0,1,.164.168,1.912,1.912,0,0,1,.256,1.009,3.75,3.75,0,0,0-.029.969c.069.314.406.61.7.475a.731.731,0,0,0,.333-.471c.815-2.358.446-4.935.073-7.4a.387.387,0,0,0-.435-.406c-1.725-.172-2.668-.585-3.655,1.02A10.02,10.02,0,0,0,244.262,603.392Z" transform="translate(-159.003 -411.082)" fill="#ed6b86"/>
    <path id="Path_438" data-name="Path 438" d="M297.71,595.638a22.416,22.416,0,0,0-.753,10.535l.384,3.166c.132,1.067.26,2.131.446,3.187a8.462,8.462,0,0,1,.194,1.656,8.868,8.868,0,0,1-.259,1.627,19.007,19.007,0,0,0-.384,3.4c-.04,1.828.186,3.655.329,5.483a61.06,61.06,0,0,1-.128,10.937,4.1,4.1,0,0,0,.6,2.818,3.625,3.625,0,0,1,.53.87c.274.837-.366,1.674-.53,2.533a2.559,2.559,0,0,0,2.127,2.924c2.924.347,5.929.19,8.564,1.528.278-.811-.329-1.733-.051-2.559.175-.512.658-.844.987-1.276a3.714,3.714,0,0,0,.629-2.23,8.147,8.147,0,0,0-.541-3.023,6.539,6.539,0,0,1-.731-2.46,3.109,3.109,0,0,0-.022-1.261,1.97,1.97,0,0,0-.472-.589,7.431,7.431,0,0,1-1.912-4.332,19.952,19.952,0,0,1,.154-4.8,8.161,8.161,0,0,1,1.382-4.291,27.536,27.536,0,0,1,.771-10.692c.1-.322.245-.694.574-.771a.819.819,0,0,1,.7.278,4.792,4.792,0,0,1,1.1,2.062,4.5,4.5,0,0,1,.344,2.5c-.088.366-.263.687-.366,1.038a3.078,3.078,0,0,0,.11,2.146,2.062,2.062,0,0,1,.263.808,2.237,2.237,0,0,1-.219.7,3.231,3.231,0,0,0,.3,2.614,9.463,9.463,0,0,0,1.707,2.094,7.677,7.677,0,0,0,.238,4.226.534.534,0,0,1,.048.406c-.066.139-.234.19-.366.289-.366.3-.139.866.106,1.257a28.827,28.827,0,0,0,2.219,3.078c.731.874.665,2.559,1.755,2.873a3.291,3.291,0,0,0,1.389,0,3.642,3.642,0,0,0,2.8-1.426,3.836,3.836,0,0,1,.64-1.159c.336-.292.771-.344.958-.695s-.022-.811.04-1.217.417-.731.53-1.159c.27-.987-.881-1.8-1.038-2.807-.227-1.462,1.616-2.559,1.539-4.021-.161-3.176-.263-6.368-.428-9.544a68.818,68.818,0,0,1-.088-8.55c.128-1.773.366-3.63-.285-5.278-.936-2.325-3.516-3.63-6.013-3.878s-4.986.344-7.461.731A47.157,47.157,0,0,1,297.71,595.638Z" transform="translate(-192.281 -409.327)" fill="#3f3d56"/>
    <circle id="Ellipse_78" data-name="Ellipse 78" cx="5.856" cy="5.856" r="5.856" transform="translate(106.993 139.662)" fill="#fbbebe"/>
    <path id="Path_439" data-name="Path 439" d="M309.1,498.475a2.5,2.5,0,0,1-2.387,1.51,2.944,2.944,0,0,0,.877,2.453,10.41,10.41,0,0,0,9.964,3.418,4.916,4.916,0,0,0,1.963-.819,4.354,4.354,0,0,0,1.5-2.6,12.906,12.906,0,0,0,.143-3.052.789.789,0,0,0-.161-.563.8.8,0,0,0-.512-.168,8.875,8.875,0,0,1-3.611-.764,2.574,2.574,0,0,1-1.334-3.1,13.106,13.106,0,0,1-2.5.3c-.881.124-1.762.263-2.639.424a4.8,4.8,0,0,0-1.239.234c-.53.274-.333.139-.208.636A3.023,3.023,0,0,1,309.1,498.475Z" transform="translate(-198.636 -346.008)" fill="#fbbebe"/>
    <path id="Path_440" data-name="Path 440" d="M276.583,507.212a9.7,9.7,0,0,1-2.343-.26,3.29,3.29,0,0,1-1.923-1.283c-.271-.409-.446-.925-.877-1.155-.705-.366-1.51.252-2.073.819a7.531,7.531,0,0,1-1.762,1.418c-.782.413-1.7.559-2.434,1.045a6.119,6.119,0,0,0-1.462,1.579l-5.18,7.055c-2.08,2.836-3.889,5.881-5.742,8.875-1.6,2.592-2.445,5.574-3.655,8.371a.936.936,0,0,0-.113.563c.044.19.274.344.435.234-.545.541-.066,1.462-.194,2.222a2.727,2.727,0,0,1-.87,1.363,6.873,6.873,0,0,1,2.413.113,7.4,7.4,0,0,1,2.281,1.1c.442-.069.4-.855.731-1.148.2-.172.49-.15.749-.2.976-.19,1.363-1.363,2.113-2.025.625-.552,1.51-.731,2.171-1.25,1.075-.844,1.3-2.347,1.868-3.593.479-1.056,1.232-1.978,1.652-3.06a13.183,13.183,0,0,1,.8-2.109,6.038,6.038,0,0,1,2.924-2.1,4.843,4.843,0,0,1,2.226-.6,20.676,20.676,0,0,0,.113,5.033c.128.585.307,1.155.461,1.736a32.7,32.7,0,0,1,.9,8.042,24.47,24.47,0,0,1,5.117-.614c1.356-.04,2.709.135,4.065.11,1.608-.029,3.2-.34,4.807-.45a8.979,8.979,0,0,1,4.712.731,44.764,44.764,0,0,1,.194-6.945l.387-3.633a22.32,22.32,0,0,1,.486-3.136c.212-.833.519-1.638.753-2.467a28.243,28.243,0,0,0,.515-9.091,11.459,11.459,0,0,0-1.393-4.5,12.172,12.172,0,0,0-.877-1.491A8.638,8.638,0,0,0,281,502.968a1.528,1.528,0,0,0-.541.117,1.8,1.8,0,0,0-.691.822A8.956,8.956,0,0,1,276.583,507.212Z" transform="translate(-161.662 -351.185)" fill="#3f3d56"/>
    <path id="Path_441" data-name="Path 441" d="M302.649,475.536c.164-.366.607-.5.877-.793.519-.556.285-1.444.366-2.193a3.15,3.15,0,0,1,2.084-2.405,6.733,6.733,0,0,1,3.29-.208,3.184,3.184,0,0,1,1.484.493c.19.139.366.318.545.446a1.462,1.462,0,0,0,1.988-.464c-1.294-1.557-2.727-3.2-4.693-3.681a9.627,9.627,0,0,0-2.051-.194,6.659,6.659,0,0,0-2.69.314,4.484,4.484,0,0,0-2.361,2.727,13.257,13.257,0,0,0-.574,3.655,13.773,13.773,0,0,0,0,2.486,6.872,6.872,0,0,0,1.221,3.133.947.947,0,0,0,.366.34C304.166,479.922,302.513,475.839,302.649,475.536Z" transform="translate(-194.95 -328.077)" fill="#3f3d56"/>
    <path id="Path_442" data-name="Path 442" d="M310.978,462.99a7.175,7.175,0,0,0-2.734-4.288,10.081,10.081,0,0,0-3.674-2.211,4.909,4.909,0,0,0-4.145.5,6.369,6.369,0,0,0-2.018,2.774,8.733,8.733,0,0,0-.881,4.021,4.335,4.335,0,0,0,1.963,3.48,3.692,3.692,0,0,1,1.9-1.225,93.054,93.054,0,0,1,9.588-3.056Z" transform="translate(-192.836 -321.559)" fill="#fed253"/>
    <path id="Path_443" data-name="Path 443" d="M303.31,472.72c.117,0,.194.121.252.219a9.265,9.265,0,0,1,.764,1.462c-.428.091-1.162.194-1.374-.183C302.838,474.028,302.974,472.7,303.31,472.72Z" transform="translate(-196.255 -332.005)" opacity="0.1"/>
    <path id="Path_444" data-name="Path 444" d="M326.459,467.327c-.088.084-.19-.088-.19-.212V465.7a.209.209,0,0,1,.026-.113.172.172,0,0,1,.121-.058c.3-.033.541.219.731.461a7.72,7.72,0,0,1,.749,1.246l-1.546-.048" transform="translate(-211.074 -327.438)" opacity="0.1"/>
    <path id="Path_445" data-name="Path 445" d="M359.254,518.4a9.57,9.57,0,0,1,1.075-.881,16.213,16.213,0,0,1,3.374-1.374,4.452,4.452,0,0,0,2.734-2.263,5.374,5.374,0,0,0,.212-2.193,2.192,2.192,0,0,0-.161-.9,1.8,1.8,0,0,0-.578-.629c-1.543-1.14-3.611-1.232-5.527-1.115a34.642,34.642,0,0,0-12.212,3.049,1.06,1.06,0,0,0-.512.365,1.045,1.045,0,0,0-.1.508,8.408,8.408,0,0,0,.413,3.184c.5,1.3,1.543,2.35,1.978,3.677.2.6.263,1.228.435,1.828a2.559,2.559,0,0,0,1.027,1.528c1.444.863,2.807-.3,3.809-1.2Z" transform="translate(-224.572 -355.027)" fill="#3f3d56"/>
    <path id="Path_446" data-name="Path 446" d="M305.114,518.272l-1.853-4.043a14.145,14.145,0,0,1-.7-1.729c-.212-.705-.314-1.437-.512-2.146-.651-2.361-2.292-4.328-3.092-6.642a1.261,1.261,0,0,0-.3-.559.976.976,0,0,0-.815-.146c-1.118.194-1.992,1.045-3.016,1.528-.475.219-.987.366-1.462.618a1.828,1.828,0,0,0-.98,1.166,2.851,2.851,0,0,0,.4,1.641,18.536,18.536,0,0,1,1.265,7.208,7.665,7.665,0,0,1-1.027,4.752c-1.875,2.559-.676,6.316.026,9.412.084.366.183.76.241,1.148a10.554,10.554,0,0,1,.084,1.462,11.443,11.443,0,0,1-.779,4.821,5.394,5.394,0,0,0,2.193.621q3.184.406,6.393.57a6.968,6.968,0,0,0,2.007-.1,3.655,3.655,0,0,0,2.7-3.582,4.519,4.519,0,0,0,1.067,2.815,4.252,4.252,0,0,0,2.8.863,52.128,52.128,0,0,0,8.444-.238,1.462,1.462,0,0,0,.519-.121c.541-.271.57-1.016.526-1.616-.08-1.122-.164-2.244-.3-3.359a13.745,13.745,0,0,1-.175-2.149,12.369,12.369,0,0,1,.366-2.193,24.872,24.872,0,0,0,.713-6.945,11.716,11.716,0,0,1-.069-1.714c.1-1.29.775-2.518.647-3.8a62.237,62.237,0,0,0-1.714-11.284,2.925,2.925,0,0,0-1-1.722c-.731-.49-1.758-.234-2.6-.545A6.491,6.491,0,0,1,314,501.6a5.118,5.118,0,0,0-2.519-.775,2.138,2.138,0,0,0-1.828.665,2.653,2.653,0,0,0-.366,1c-.53,2.23-1.151,4.434-1.773,6.638l-.6,2.113-1.6,5.673C305.169,517.515,305.275,517.7,305.114,518.272Z" transform="translate(-189.341 -349.835)" fill="#ed6b86"/>
    <path id="Path_447" data-name="Path 447" d="M330.218,400.25l35.358,37.156v3.151H349.81l-26.57-34.678" transform="translate(-205.098 -253.946)" fill="#f1c0c0"/>
    <path id="Path_448" data-name="Path 448" d="M330.218,400.25l35.358,37.156v3.151H349.81l-26.57-34.678" transform="translate(-205.098 -253.946)" opacity="0.1"/>
    <path id="Path_449" data-name="Path 449" d="M323.8,414.31l.113.04,26.121,31.977h15.539v3.151H349.81L323.24,414.8Z" transform="translate(-205.098 -262.867)" opacity="0.1"/>
    <path id="Path_450" data-name="Path 450" d="M341.52,501.559c-1.279.559-2.7,1.276-3.085,2.621a1.312,1.312,0,0,0,1.294,1.758,4.386,4.386,0,0,0,1.758-.322l7.548-2.493c.2-.066.439-.164.49-.366a.629.629,0,0,0-.073-.366c-.234-.57-.464-1.736-.954-2.135-.4-.322-1.2-.208-1.685-.2A13.664,13.664,0,0,0,341.52,501.559Z" transform="translate(-218.747 -349.333)" fill="#ed6b86"/>
    <path id="Path_451" data-name="Path 451" d="M362.612,502.1a12.139,12.139,0,0,1,3.747.581,6.674,6.674,0,0,1,3.1,2.12,2.324,2.324,0,0,1,.49.958c.073.366,1.265.585,1,.833.8-.128.61.249,1.422.241a2.687,2.687,0,0,0,2.175-.863,2.826,2.826,0,0,0,.428-1.787,3.045,3.045,0,0,0-.241-1.265,3.734,3.734,0,0,0-1.981-1.535l-6.528-2.986a4.335,4.335,0,0,0-1.206-.428,4.513,4.513,0,0,0-1.064.026l-2.957.34a4.434,4.434,0,0,1,2.021,3.9" transform="translate(-233.109 -348.01)" fill="#3f3d56"/>
  </g>
</svg>
