<svg xmlns="http://www.w3.org/2000/svg" xmlns:xlink="http://www.w3.org/1999/xlink" width="29.634" height="29.634" viewBox="0 0 29.634 29.634">
  <defs>
    <clipPath id="clip-path">
      <path id="path1395" d="M0-682.665H29.634v29.634H0Z" transform="translate(0 682.665)" fill="none"/>
    </clipPath>
  </defs>
  <g id="g1389" transform="translate(0 682.665)">
    <g id="g1391" transform="translate(0 -682.665)">
      <g id="g1393" clip-path="url(#clip-path)">
        <g id="g1399" transform="translate(20.952 1.158)">
          <path id="path1401" d="M-6.377,0s-.289,3.542-.289,5.62A3.807,3.807,0,0,0-2.9,9.434,3.807,3.807,0,0,0,.858,5.62C.858,3.542.568,0,.568,0" transform="translate(6.667)" fill="none" stroke="#fdf7f0" stroke-linecap="round" stroke-linejoin="round" stroke-miterlimit="10" stroke-width="2"/>
        </g>
        <g id="g1403" transform="translate(24.714 1.158)">
          <path id="path1405" d="M0,0V4.457" fill="none" stroke="#fdf7f0" stroke-linecap="round" stroke-linejoin="round" stroke-miterlimit="10" stroke-width="2"/>
        </g>
        <g id="g1407" transform="translate(1.158 1.158)">
          <path id="path1409" d="M-426-575.228a13.755,13.755,0,0,1-5.672,1.215,13.66,13.66,0,0,1-13.659-13.659,13.659,13.659,0,0,1,13.659-13.659,13.774,13.774,0,0,1,1.852.125" transform="translate(445.332 601.332)" fill="none" stroke="#fdf7f0" stroke-linecap="round" stroke-linejoin="round" stroke-miterlimit="10" stroke-width="2"/>
        </g>
        <g id="g1411" transform="translate(6.83 6.83)">
          <path id="path1413" d="M-180.861-353.253a8.017,8.017,0,0,1-8.205-7.824,8.017,8.017,0,0,1,7.825-8.2,8.281,8.281,0,0,1,2.07.23" transform="translate(189.069 369.284)" fill="none" stroke="#fdf7f0" stroke-linecap="round" stroke-linejoin="round" stroke-miterlimit="10" stroke-width="2"/>
        </g>
        <g id="g1415" transform="translate(24.714 15.222)">
          <path id="path1417" d="M0,0V13.254" fill="none" stroke="#fdf7f0" stroke-linecap="round" stroke-linejoin="round" stroke-miterlimit="10" stroke-width="2"/>
        </g>
      </g>
    </g>
  </g>
</svg>
