<svg xmlns="http://www.w3.org/2000/svg" width="26.844" height="10.908" viewBox="0 0 26.844 10.908">
  <g id="Group_207" data-name="Group 207" transform="translate(-488.464 -207)">
    <path id="Path_373" data-name="Path 373" d="M815.622,208a1,1,0,1,1,2,0v.887a1,1,0,1,1-2,0V208Z" transform="translate(-307.223)" fill="#1a276c" fill-rule="evenodd"/>
    <path id="Path_374" data-name="Path 374" d="M783.556,235.78a1,1,0,0,0-1.26-.642l-4.6,1.5-4.6-1.5a1,1,0,0,0-.62,1.9l3.6,1.175-2.214,3.047a1,1,0,0,0,1.62,1.177l2.218-3.052,2.219,3.052a1,1,0,1,0,1.62-1.176l-2.212-3.052,3.586-1.171a1,1,0,0,0,.64-1.26Z" transform="translate(-268.298 -24.943)" fill="#1a276c" fill-rule="evenodd"/>
    <path id="Path_375" data-name="Path 375" d="M727.839,231a.762.762,0,1,1,1.524,0v.675a.762.762,0,1,1-1.524,0V231Z" transform="translate(-229.267 -20.633)" fill="#1a276c" fill-rule="evenodd"/>
    <path id="Path_376" data-name="Path 376" d="M703.42,252.152a.759.759,0,0,0-.96-.489l-3.5,1.142-3.5-1.142a.762.762,0,0,0-.472,1.448l2.74.895-1.687,2.321a.762.762,0,0,0,1.234.9l1.69-2.325,1.69,2.324a.762.762,0,1,0,1.233-.9L700.2,254l2.731-.892a.759.759,0,0,0,.488-.959Z" transform="translate(-199.624 -39.629)" fill="#1a276c" fill-rule="evenodd"/>
    <path id="Path_377" data-name="Path 377" d="M662.445,249.654a.568.568,0,1,1,1.137,0v.5a.568.568,0,1,1-1.137,0v-.5Z" transform="translate(-171.194 -37.373)" fill="#1a276c" fill-rule="evenodd"/>
    <path id="Path_378" data-name="Path 378" d="M644.233,265.436a.566.566,0,0,0-.716-.364l-2.612.852-2.612-.852a.568.568,0,0,0-.353,1.081l2.044.667-1.258,1.732a.569.569,0,0,0,.92.669l1.261-1.734,1.261,1.734a.569.569,0,0,0,.92-.669l-1.256-1.734,2.037-.665a.567.567,0,0,0,.364-.716Z" transform="translate(-149.084 -51.546)" fill="#1a276c" fill-rule="evenodd"/>
  </g>
</svg>
