<svg xmlns="http://www.w3.org/2000/svg" xmlns:xlink="http://www.w3.org/1999/xlink" width="33.352" height="33.352" viewBox="0 0 33.352 33.352">
  <defs>
    <clipPath id="clip-path">
      <path id="path201" d="M0-682.665H33.352v33.352H0Z" transform="translate(0 682.665)" fill="none"/>
    </clipPath>
  </defs>
  <g id="g195" transform="translate(0 682.665)">
    <g id="g197" transform="translate(0 -682.665)">
      <g id="g199" clip-path="url(#clip-path)">
        <g id="g205" transform="translate(4.681 9.398)">
          <path id="path207" d="M-282.482-447.322H-293.2a3.789,3.789,0,0,1-3.789-3.789V-470.3h18.3v19.188A3.789,3.789,0,0,1-282.482-447.322Z" transform="translate(296.991 470.299)" fill="none" stroke="#fdf7f0" stroke-miterlimit="10" stroke-width="2"/>
        </g>
        <g id="g209" transform="translate(3.917 1)">
          <path id="path211" d="M-371.094-163.5a3.118,3.118,0,0,0,.124-.873,3.118,3.118,0,0,0-3.118-3.118,3.111,3.111,0,0,0-1.055.184,3.232,3.232,0,0,0-3.208-2.842,3.216,3.216,0,0,0-1.687.475,3.233,3.233,0,0,0-3.071-2.224,3.231,3.231,0,0,0-3.231,3.192,3.251,3.251,0,0,0-.583-.053,3.232,3.232,0,0,0-3.232,3.232,3.218,3.218,0,0,0,.735,2.052" transform="translate(390.155 171.897)" fill="none" stroke="#fdf7f0" stroke-miterlimit="10" stroke-width="2"/>
        </g>
        <g id="g213" transform="translate(4.681 13.545)">
          <path id="path215" d="M0,0H19.915a4.838,4.838,0,0,1,4.838,4.838h0a4.838,4.838,0,0,1-4.838,4.838H18.421" fill="none" stroke="#fdf7f0" stroke-miterlimit="10" stroke-width="2"/>
        </g>
        <g id="g217" transform="translate(9.27 17.197)">
          <path id="path219" d="M0,0V11.268" fill="none" stroke="#fdf7f0" stroke-miterlimit="10" stroke-width="2"/>
        </g>
        <g id="g221" transform="translate(13.83 17.197)">
          <path id="path223" d="M0,0V11.268" fill="none" stroke="#fdf7f0" stroke-miterlimit="10" stroke-width="2"/>
        </g>
        <g id="g225" transform="translate(18.39 17.197)">
          <path id="path227" d="M0,0V11.268" fill="none" stroke="#fdf7f0" stroke-miterlimit="10" stroke-width="2"/>
        </g>
      </g>
    </g>
  </g>
</svg>
