<svg xmlns="http://www.w3.org/2000/svg" xmlns:xlink="http://www.w3.org/1999/xlink" width="35.847" height="36.848" viewBox="0 0 35.847 36.848">
  <defs>
    <clipPath id="clip-path">
      <path id="path1461" d="M0-682.665H28.188v28.188H0Z" transform="translate(0 682.665)"/>
    </clipPath>
  </defs>
  <g id="Group_223" data-name="Group 223" transform="translate(-3183.078 -1455)">
    <g id="g1455" transform="translate(3190.738 1455)">
      <g id="g1457" transform="translate(0 0)">
        <g id="g1459" clip-path="url(#clip-path)">
          <g id="g1465" transform="translate(1.101 1.101)">
            <path id="path1467" d="M-603.346-427.37h-4.276a3.3,3.3,0,0,0-3.3,3.3v4.276m-12.893,0h12.893a5.228,5.228,0,0,0,3.7-1.531l2.351-2.351a5.228,5.228,0,0,0,1.531-3.7v-12.893a5.514,5.514,0,0,0-1.615-3.9,5.514,5.514,0,0,0-3.9-1.615h-14.958a5.514,5.514,0,0,0-3.9,1.615,5.514,5.514,0,0,0-1.615,3.9V-425.3a5.514,5.514,0,0,0,1.615,3.9A5.514,5.514,0,0,0-623.818-419.791Zm.983-6.5h6.5m-6.5-12.993h12.993m-12.993,6.5h12.993" transform="translate(629.332 445.776)" fill="rgba(0,0,0,0)" stroke="#fdf7f0" stroke-linecap="round" stroke-linejoin="round" stroke-miterlimit="10" stroke-width="2.5"/>
          </g>
        </g>
      </g>
    </g>
    <g id="g1113" transform="translate(3184.396 1474.101)">
      <path id="path1115" d="M-50.757-5.788a7.157,7.157,0,0,0-.811.662l-1.958-1.13a1.017,1.017,0,0,0-1.328.28,10.133,10.133,0,0,0-.609.933,10.132,10.132,0,0,0-.5.995,1.017,1.017,0,0,0,.421,1.29l1.957,1.13a7.063,7.063,0,0,0-.2,1.635,7.065,7.065,0,0,0,.2,1.635l-1.957,1.13a1.017,1.017,0,0,0-.421,1.29,10.144,10.144,0,0,0,.5.994,10.136,10.136,0,0,0,.609.933,1.017,1.017,0,0,0,1.328.28l1.958-1.13a7.052,7.052,0,0,0,2.831,1.64V9.034a1.017,1.017,0,0,0,.907,1.01,10.15,10.15,0,0,0,1.113.061,10.15,10.15,0,0,0,1.113-.061,1.017,1.017,0,0,0,.907-1.01V6.779a7.051,7.051,0,0,0,2.831-1.64l1.957,1.13a1.017,1.017,0,0,0,1.328-.28,10.135,10.135,0,0,0,.609-.933,10.116,10.116,0,0,0,.5-.994l.007-.015" transform="translate(56.053 6.392)" fill="rgba(0,0,0,0)" stroke="#fdf7f0" stroke-linecap="round" stroke-linejoin="round" stroke-miterlimit="10" stroke-width="2.5"/>
    </g>
  </g>
</svg>
