<svg xmlns="http://www.w3.org/2000/svg" xmlns:xlink="http://www.w3.org/1999/xlink" width="29.745" height="29.745" viewBox="0 0 29.745 29.745">
  <defs>
    <clipPath id="clip-path">
      <path id="path3384" d="M0-682.665H29.745v29.745H0Z" transform="translate(-2.589 680.46)" fill="none"/>
    </clipPath>
  </defs>
  <g id="g3378" transform="translate(4.589 684.87)">
    <g id="g3380" transform="translate(-2 -682.665)">
      <g id="g3382" clip-path="url(#clip-path)">
        <g id="g3388" transform="translate(0.72 6.91)">
          <path id="path3390" d="M-505.141-308.483h1.392a2.879,2.879,0,0,0,2.879-2.879v-5.758A2.879,2.879,0,0,0-503.749-320h-17.37A2.879,2.879,0,0,0-524-317.12v5.758a2.879,2.879,0,0,0,2.879,2.879h1.392" transform="translate(523.999 319.999)" fill="none" stroke="#19276c" stroke-linecap="round" stroke-linejoin="round" stroke-miterlimit="10" stroke-width="2"/>
        </g>
        <g id="g3392" transform="translate(3.839 14.587)">
          <path id="path3394" d="M-452.442,0h-16.89" transform="translate(469.332 0)" fill="none" stroke="#19276c" stroke-linecap="round" stroke-linejoin="round" stroke-miterlimit="10" stroke-width="2"/>
        </g>
        <g id="g3396" transform="translate(4.99 14.587)">
          <path id="path3398" d="M-38.56-248.072h11.708a1.44,1.44,0,0,0,1.44-1.44v-7.821H-40v7.821A1.44,1.44,0,0,0-38.56-248.072Z" transform="translate(40 257.333)" fill="none" stroke="#19276c" stroke-linecap="round" stroke-linejoin="round" stroke-miterlimit="10" stroke-width="2"/>
        </g>
        <g id="g3400" transform="translate(10.365 17.658)">
          <path id="path3402" d="M-102.828,0h-3.839" transform="translate(106.666)" fill="none" stroke="#19276c" stroke-linecap="round" stroke-linejoin="round" stroke-miterlimit="10" stroke-width="2"/>
        </g>
        <g id="g3404" transform="translate(10.365 20.729)">
          <path id="path3406" d="M-102.828,0h-3.839" transform="translate(106.666)" fill="none" stroke="#19276c" stroke-linecap="round" stroke-linejoin="round" stroke-miterlimit="10" stroke-width="2"/>
        </g>
        <g id="g3408" transform="translate(3.839 9.981)">
          <path id="path3410" d="M-61.7,0H-64" transform="translate(64)" fill="none" stroke="#19276c" stroke-linecap="round" stroke-linejoin="round" stroke-miterlimit="10" stroke-width="2"/>
        </g>
        <g id="g3412" transform="translate(4.99 0.72)">
          <path id="path3414" d="M-77.121,0h8.829a2.879,2.879,0,0,1,2.879,2.879V6.19H-80V2.879A2.879,2.879,0,0,1-77.121,0Z" transform="translate(80 0)" fill="none" stroke="#19276c" stroke-linecap="round" stroke-linejoin="round" stroke-miterlimit="10" stroke-width="2"/>
        </g>
      </g>
    </g>
  </g>
</svg>
