<svg xmlns="http://www.w3.org/2000/svg" xmlns:xlink="http://www.w3.org/1999/xlink" width="34.239" height="34.239" viewBox="0 0 34.239 34.239">
  <defs>
    <clipPath id="clip-path">
      <path id="path111" d="M0-682.665H34.239v34.239H0Z" transform="translate(0 682.665)"/>
    </clipPath>
  </defs>
  <g id="g105" transform="translate(0 682.665)">
    <g id="g107" transform="translate(0 -682.665)">
      <g id="g109" clip-path="url(#clip-path)">
        <g id="g115" transform="translate(9.061 16.683)">
          <path id="path117" d="M0-43.6a2.3,2.3,0,0,1,2.3-2.3,2.3,2.3,0,0,1,2.3,2.3" transform="translate(0 45.904)" fill="rgba(0,0,0,0)" stroke="#1a276c" stroke-width="2"/>
        </g>
        <g id="g119" transform="translate(20.573 16.683)">
          <path id="path121" d="M0-43.6a2.3,2.3,0,0,1,2.3-2.3,2.3,2.3,0,0,1,2.3,2.3" transform="translate(0 45.904)" fill="rgba(0,0,0,0)" stroke="#1a276c" stroke-width="2"/>
        </g>
        <g id="g123" transform="translate(13.152 23.59)">
          <path id="path125" d="M0,0A4.6,4.6,0,0,0,3.968,2.268,4.6,4.6,0,0,0,7.935,0" fill="rgba(0,0,0,0)" stroke="#1a276c" stroke-width="2"/>
        </g>
        <g id="g127" transform="translate(1.003 5.397)">
          <path id="path129" d="M-610.432-249.745a3.452,3.452,0,0,1-3.386,3.452,13.193,13.193,0,0,1-12.731,9.735,13.193,13.193,0,0,1-12.731-9.735,3.452,3.452,0,0,1-3.386-3.452,3.445,3.445,0,0,1,1.011-2.442,3.442,3.442,0,0,1,2.375-1.01,13.193,13.193,0,0,1,12.731-9.735,13.193,13.193,0,0,1,12.731,9.735,3.442,3.442,0,0,1,2.375,1.01A3.445,3.445,0,0,1-610.432-249.745Z" transform="translate(642.665 262.933)" fill="rgba(0,0,0,0)" stroke="#1a276c" stroke-width="2"/>
        </g>
        <g id="g131" transform="translate(12.515 1.465)">
          <path id="path133" d="M-5.935-155.739h0a4.291,4.291,0,0,0,4.291,4.291,4.291,4.291,0,0,0,4.291-4.291,4.291,4.291,0,0,0-4.291-4.291h-.673a3.932,3.932,0,0,1-3.932-3.932" transform="translate(6.248 163.962)" fill="rgba(0,0,0,0)" stroke="#1a276c" stroke-width="2"/>
        </g>
        <g id="g135" transform="translate(7.91 1.465)">
          <path id="path137" d="M-174.409-74.468h-5.277a3.932,3.932,0,0,1-3.932-3.932" transform="translate(183.618 78.4)" fill="rgba(0,0,0,0)" stroke="#1a276c" stroke-width="2"/>
        </g>
      </g>
    </g>
  </g>
</svg>
