<svg xmlns="http://www.w3.org/2000/svg" xmlns:xlink="http://www.w3.org/1999/xlink" width="28.122" height="28.122" viewBox="0 0 28.122 28.122">
  <defs>
    <clipPath id="clip-path">
      <path id="path111" d="M0-682.665H28.122v28.122H0Z" transform="translate(0 682.665)" fill="none"/>
    </clipPath>
  </defs>
  <g id="g105" transform="translate(0 0)">
    <g id="g107">
      <g id="g109" clip-path="url(#clip-path)">
        <g id="g115" transform="translate(7.442 13.702)">
          <path id="path117" d="M0-44.013A1.891,1.891,0,0,1,1.891-45.9a1.891,1.891,0,0,1,1.891,1.891" transform="translate(0 45.904)" fill="none" stroke="#fff" stroke-width="2"/>
        </g>
        <g id="g119" transform="translate(16.898 13.702)">
          <path id="path121" d="M0-44.013A1.891,1.891,0,0,1,1.891-45.9a1.891,1.891,0,0,1,1.891,1.891" transform="translate(0 45.904)" fill="none" stroke="#fff" stroke-width="2"/>
        </g>
        <g id="g123" transform="translate(10.802 19.375)">
          <path id="path125" d="M0,0A3.779,3.779,0,0,0,3.259,1.863,3.779,3.779,0,0,0,6.518,0" fill="none" stroke="#fff" stroke-width="2"/>
        </g>
        <g id="g127" transform="translate(0.824 4.433)">
          <path id="path129" d="M-616.191-252.1a2.835,2.835,0,0,1-2.781,2.835,10.836,10.836,0,0,1-10.456,8,10.836,10.836,0,0,1-10.456-8,2.835,2.835,0,0,1-2.781-2.835,2.83,2.83,0,0,1,.83-2.006,2.827,2.827,0,0,1,1.95-.829,10.836,10.836,0,0,1,10.456-8,10.836,10.836,0,0,1,10.456,8,2.827,2.827,0,0,1,1.95.829A2.83,2.83,0,0,1-616.191-252.1Z" transform="translate(642.665 262.933)" fill="none" stroke="#fff" stroke-width="2"/>
        </g>
        <g id="g131" transform="translate(10.279 1.203)">
          <path id="path133" d="M-5.991-157.208h0a3.525,3.525,0,0,0,3.525,3.525,3.525,3.525,0,0,0,3.525-3.525,3.525,3.525,0,0,0-3.525-3.525h-.552a3.23,3.23,0,0,1-3.23-3.23" transform="translate(6.248 163.962)" fill="none" stroke="#fff" stroke-width="2"/>
        </g>
        <g id="g135" transform="translate(6.497 1.203)">
          <path id="path137" d="M-176.054-75.17h-4.334a3.23,3.23,0,0,1-3.23-3.23" transform="translate(183.618 78.4)" fill="none" stroke="#fff" stroke-width="2"/>
        </g>
      </g>
    </g>
  </g>
</svg>
