<svg id="Wittle_Logo" data-name="Wittle Logo" xmlns="http://www.w3.org/2000/svg" width="321.598" height="138.853" viewBox="0 0 321.598 138.853">
  <g id="Group_1" data-name="Group 1">
    <path id="Path_1" data-name="Path 1" d="M294.62,254.458c11.1-3.131,15.287,13.081,17.56,21.136,3.132,11.1,6.152,32.082,5.037,52.109,3.293,8.928,9.9,20.011,15.807,18.346,15.755-4.444,11.945-41.245,4.47-67.738-4.343-15.395-8.122-23.992-14.3-31.523-.757-2.685,3.209-4.384,5.178-4.94,16.83-4.746,23.367,19.113,26.752,31.106,6.413,22.734,16.441,80.2-14.534,88.934-10.384,2.928-19.515-2.033-27.255-10.285-3.774,12.659-10.477,22.471-21.577,25.6-22.918,6.463-35.883-28.53-40.289-55.116a94.319,94.319,0,0,0,2.3-15.142c-1.171,6.128-7.391,16.965-17.417,19.793a14.4,14.4,0,0,1-2.448.461c-6.154.723-10.33-4.153-12.129-12.391,13.75-8.129,22.958-26.185,22.333-45.527,12.276-3.077,16.914,1.027,18.883,8.009,4.394,15.573,6.2,41.152,11.4,59.591,3.433,12.172,8.866,23.2,16.027,21.182,5.73-1.617,10.321-14.119,10.255-25.31a163.557,163.557,0,0,1-12.11-30.595C285.022,289.631,279.94,258.6,294.62,254.458Z" transform="translate(-221.77 -239.135)" fill="#ed6b86"/>
    <path id="Path_2" data-name="Path 2" d="M377.665,270.2c8-.165,9.591,4.826,9.671,8.73.135,6.508-.336,19.725-.115,30.323.123,5.951,1.149,10.581,4.311,10.516,4.836-.1,6.026-5.52,7.441-9.083a1.391,1.391,0,0,1,1.468-.961c1.116-.024,1.5.712,1.329,1.275-.695,11.362-6.874,27.489-18.777,27.734-8.183.169-13.127-4.937-14.253-14.4-2-15.956,1.406-30.91-.292-50.035A12.305,12.305,0,0,1,377.665,270.2Zm-4.354-30.6c4.995-1.405,10.627,1.082,12.068,7.749,1.262,7.044.68,14.869-5.054,16.476-4.441,1.208-9.5-.547-10.914-5.913-.209-1.112,1.1-9.882-1.059-15.232A8.729,8.729,0,0,1,373.311,239.593Z" transform="translate(-215.954 -239.215)" fill="#ed6b86"/>
    <path id="Path_3" data-name="Path 3" d="M398.776,255.987a22.573,22.573,0,0,1,3.515.411,86.719,86.719,0,0,0,.629-9.837c2.011-2.294,5.622-3.368,9.334-3.132,7.983.511,9.16,5.433,8.912,9.33-.155,2.413-.309,4.827-.488,7.61l2.043.13c3.712.237,5.79-.188,7.777-2.112a6.921,6.921,0,0,1,1.224,4.179c-.26,4.083-3.8,7.025-8.632,6.716-2.97-.189-5.929-.564-8.7-.927,5.068,2.373,4.774,4.031,4.692,5.331-1.842,14.232-2.037,28.944-2.488,36-.381,5.939.264,10.454,3.42,10.655,4.827.308,6.25-4.446,7.96-7.878a1.392,1.392,0,0,1,1.544-.834c.928.059,1.438.838,1.217,1.383-1.652,11.262-8.961,26.452-20.843,25.692-8.168-.523-12.651-6.213-12.987-15.554-.54-11.962,2.049-37.889,4.457-58.049a6.872,6.872,0,0,0-2.03-.316c-2.786-.18-4.69.445-7.778,2.111C389.312,261.16,392.278,255.571,398.776,255.987Z" transform="translate(-215.05 -239.049)" fill="#ed6b86"/>
    <path id="Path_4" data-name="Path 4" d="M431.942,258.051a22.507,22.507,0,0,1,3.469.7,86.789,86.789,0,0,0,1.45-9.751c2.195-2.118,5.883-2.886,9.561-2.339,7.914,1.176,8.674,6.177,8.1,10.04-.356,2.392-.71,4.784-1.121,7.543l2.024.3c3.68.547,5.785.294,7.927-1.455a6.925,6.925,0,0,1,.87,4.265c-.6,4.048-4.378,6.683-9.163,5.972-2.944-.437-5.859-1.058-8.592-1.652,4.851,2.788,4.421,4.417,4.23,5.7-3.026,14.03-4.45,28.672-5.488,35.664-.875,5.886-.611,10.438,2.516,10.9,4.785.711,6.6-3.908,8.591-7.185a1.394,1.394,0,0,1,1.608-.7c.92.136,1.363.954,1.1,1.479-2.588,11.086-11.141,25.609-22.918,23.86-8.1-1.2-12.087-7.249-11.64-16.584.462-11.965,5.21-37.585,9.293-57.473a7.016,7.016,0,0,0-2-.484c-2.759-.411-4.709.053-7.927,1.454C422.078,262.414,425.5,257.093,431.942,258.051Z" transform="translate(-213.756 -238.927)" fill="#ed6b86"/>
    <path id="Path_5" data-name="Path 5" d="M481.768,246.066c7.787,1.832,8.085,7.062,7.19,10.864-3.921,16.657-13.042,52.154-15.47,62.473-1.363,5.793-1.523,10.533,1.554,11.257,4.709,1.107,7.213-3.844,9.471-6.943a1.394,1.394,0,0,1,1.663-.565c.9.213,1.278,1.065.968,1.566-3.505,10.831-13.508,24.91-25.1,22.183-7.968-1.874-11.44-8.233-10.216-17.5,2.036-15.955,16.866-62.719,20.031-81.846C474.407,245.672,478.146,245.213,481.768,246.066Z" transform="translate(-212.634 -238.96)" fill="#ed6b86"/>
    <path id="Path_6" data-name="Path 6" d="M522.231,289.522c10.18,3.575,12.462,11.671,9.811,19.217-3.637,10.353-16.265,19.916-30.685,16.625-1.617,9.093,2.188,13.977,8.156,16.072,6.846,2.4,13.159,1.27,18.073-4.3a1.532,1.532,0,0,1,1.713-.385,1.441,1.441,0,0,1,.973,1.721c-5.915,12.906-20.648,21.729-35.216,16.612s-16.4-22.912-11.592-36.6C489.5,301.29,503.8,283.05,522.231,289.522Zm.557,20.3c1.356-3.86.042-6.293-2.241-7.095-8.6-3.02-15.843,11.982-17.939,17.948C511.2,320.345,520.877,315.265,522.788,309.825Z" transform="translate(-211.462 -237.278)" fill="#ed6b86"/>
  </g>
</svg>
