<svg xmlns="http://www.w3.org/2000/svg" width="1143.894" height="1116.929" viewBox="0 0 1143.894 1116.929">
  <path id="Path_9" data-name="Path 9" d="M816.348,349.251c90.606-25.573,124.771,106.834,143.321,172.626,25.56,90.651,50.212,262.029,41.107,425.6,26.875,72.915,80.788,163.44,129.014,149.838,128.59-36.3,97.488-336.863,36.482-553.24-35.446-125.733-66.285-195.948-116.751-257.461-6.178-21.931,26.188-35.8,42.26-40.346,137.364-38.758,190.716,156.1,218.339,254.056,52.342,185.676,134.182,655.014-118.619,726.358-84.75,23.917-159.275-16.607-222.446-84-30.8,103.387-85.506,183.527-176.1,209.109-187.05,52.784-292.864-233.018-328.828-450.15,6.959-25.641,18.466-96.756,18.763-123.67-9.555,50.05-60.319,138.563-142.15,161.656C277.9,957.346,238,916.525,221.77,842.183,333.99,775.788,409.143,628.32,404.043,470.348c100.2-25.131,138.043,8.388,154.116,65.41,35.862,127.194,50.585,336.107,93.041,486.7,28.021,99.413,72.361,189.488,130.8,173,46.767-13.2,84.233-115.316,83.7-206.714-47.242-89.259-80.7-185.557-98.837-249.879C738.013,636.521,696.532,383.068,816.348,349.251Z" transform="translate(-221.77 -241.233)" fill="#fdf7f0" opacity="0.055"/>
</svg>
