<svg xmlns="http://www.w3.org/2000/svg" xmlns:xlink="http://www.w3.org/1999/xlink" width="35.445" height="34.008" viewBox="0 0 35.445 34.008">
  <defs>
    <clipPath id="clip-path">
      <path id="path1977" d="M0-682.665H35.445v34.008H0Z" transform="translate(-2.182 681.202)" fill="none"/>
    </clipPath>
  </defs>
  <g id="g1971" transform="translate(2.182 684.128)">
    <g id="g1973" transform="translate(0 -682.665)">
      <g id="g1975" clip-path="url(#clip-path)">
        <g id="g1981" transform="translate(0.911 30.169)">
          <path id="path1983" d="M0,0H29.26" fill="none" stroke="#fdf7f0" stroke-linecap="round" stroke-linejoin="round" stroke-miterlimit="22.926" stroke-width="2"/>
        </g>
        <g id="g1985" transform="translate(17.116 0.912)">
          <path id="path1987" d="M-234.592-131.54a6.471,6.471,0,0,1,1.864,4.55c0,.1,0,.2-.007.3s.007.2.007.3a6.471,6.471,0,0,1-1.864,4.55,4.839,4.839,0,0,1,.211,1.417,4.866,4.866,0,0,1-4.874,4.857,4.866,4.866,0,0,1-4.874-4.857,4.84,4.84,0,0,1,.211-1.417,6.47,6.47,0,0,1-1.864-4.55c0-.1,0-.2.007-.3s-.007-.2-.007-.3a6.47,6.47,0,0,1,1.864-4.55,4.84,4.84,0,0,1-.211-1.417,4.866,4.866,0,0,1,4.874-4.857,4.866,4.866,0,0,1,4.874,4.857A4.839,4.839,0,0,1-234.592-131.54Z" transform="translate(245.782 137.814)" fill="none" stroke="#fdf7f0" stroke-linecap="round" stroke-linejoin="round" stroke-miterlimit="22.926" stroke-width="2"/>
        </g>
        <g id="g1989" transform="translate(23.643 9.384)">
          <path id="path1991" d="M0,0V20.328" fill="none" stroke="#fdf7f0" stroke-linecap="round" stroke-linejoin="round" stroke-miterlimit="22.926" stroke-width="2"/>
        </g>
        <g id="g1993" transform="translate(21.147 14.459)">
          <path id="path1995" d="M-45.619-45.619l-2.176-2.176" transform="translate(47.795 47.795)" fill="none" stroke="#fdf7f0" stroke-linecap="round" stroke-linejoin="round" stroke-miterlimit="22.926" stroke-width="2"/>
        </g>
        <g id="g1997" transform="translate(0.911 9.272)">
          <path id="path1999" d="M0-44.366a4.11,4.11,0,0,1,3.6-2.116,4.11,4.11,0,0,1,3.569,2.069,2.959,2.959,0,0,1,1.322-.31,2.961,2.961,0,0,1,1.259.279A4.11,4.11,0,0,1,13.3-46.483a4.092,4.092,0,0,1,2.311.711,2.967,2.967,0,0,1,1.016-.568" transform="translate(0 46.483)" fill="none" stroke="#fdf7f0" stroke-linecap="round" stroke-linejoin="round" stroke-miterlimit="22.926" stroke-width="2"/>
        </g>
        <g id="g2001" transform="translate(0.911 26.466)">
          <path id="path2003" d="M0,0H16.087" fill="none" stroke="#fdf7f0" stroke-linecap="round" stroke-linejoin="round" stroke-miterlimit="22.926" stroke-width="2"/>
        </g>
        <path id="path2005" d="M44-204.442H57.9v-4.917H44Z" transform="translate(-41.997 230.909)" fill="none" stroke="#fdf7f0" stroke-linecap="round" stroke-linejoin="round" stroke-miterlimit="22.926" stroke-width="2"/>
        <g id="g2007" transform="translate(2.064 26.648)">
          <path id="path2009" d="M0,0V2.914" fill="none" stroke="#fdf7f0" stroke-linecap="round" stroke-linejoin="round" stroke-miterlimit="22.926" stroke-width="2"/>
        </g>
        <g id="g2011" transform="translate(15.844 26.691)">
          <path id="path2013" d="M0,0V2.7" fill="none" stroke="#fdf7f0" stroke-linecap="round" stroke-linejoin="round" stroke-miterlimit="22.926" stroke-width="2"/>
        </g>
        <g id="g2015" transform="translate(24.17 10.632)">
          <path id="path2017" d="M0-45.619l2.176-2.176" transform="translate(0 47.795)" fill="none" stroke="#fdf7f0" stroke-linecap="round" stroke-linejoin="round" stroke-miterlimit="22.926" stroke-width="2"/>
        </g>
      </g>
    </g>
  </g>
</svg>
