<svg xmlns="http://www.w3.org/2000/svg" width="31.056" height="31.056" viewBox="0 0 31.056 31.056">
  <g id="school_3_" data-name="school(3)" transform="translate(1 1)">
    <path id="Path_318" data-name="Path 318" d="M44.131,304.312H22.462A2.462,2.462,0,0,1,20,301.849v-7.387A2.462,2.462,0,0,1,22.462,292h2.462" transform="translate(-20 -275.256)" fill="none" stroke="#1a276c" stroke-linecap="round" stroke-linejoin="round" stroke-miterlimit="10" stroke-width="2"/>
    <path id="Path_319" data-name="Path 319" d="M412,292h2.462a2.462,2.462,0,0,1,2.462,2.462v7.387a2.462,2.462,0,0,1-2.462,2.462H412" transform="translate(-387.869 -275.256)" fill="none" stroke="#1a276c" stroke-linecap="round" stroke-linejoin="round" stroke-miterlimit="10" stroke-width="2"/>
    <path id="Path_320" data-name="Path 320" d="M100,44.131V27.387l8.027-6.821a2.476,2.476,0,0,1,3.152,0l8.027,6.821V49.056" transform="translate(-95.075 -20)" fill="none" stroke="#1a276c" stroke-linecap="round" stroke-linejoin="round" stroke-miterlimit="10" stroke-width="2"/>
    <line id="Line_15" data-name="Line 15" x1="2.807" y1="2.315" transform="translate(24.131 7.387)" fill="none" stroke="#1a276c" stroke-linecap="round" stroke-linejoin="round" stroke-miterlimit="10" stroke-width="2"/>
    <line id="Line_16" data-name="Line 16" x1="2.807" y2="2.315" transform="translate(2.118 7.387)" fill="none" stroke="#1a276c" stroke-linecap="round" stroke-linejoin="round" stroke-miterlimit="10" stroke-width="2"/>
    <path id="Path_321" data-name="Path 321" d="M176,304.312v-9.849A2.462,2.462,0,0,1,178.462,292h4.925a2.462,2.462,0,0,1,2.462,2.462v9.849" transform="translate(-166.397 -275.256)" fill="none" stroke="#1a276c" stroke-linecap="round" stroke-linejoin="round" stroke-miterlimit="10" stroke-width="2"/>
    <line id="Line_17" data-name="Line 17" y2="7.244" transform="translate(14.528 21.772)" fill="none" stroke="#1a276c" stroke-linecap="round" stroke-linejoin="round" stroke-miterlimit="10" stroke-width="2"/>
    <line id="Line_18" data-name="Line 18" x2="9.992" transform="translate(9.532 21.772)" fill="none" stroke="#1a276c" stroke-linecap="round" stroke-linejoin="round" stroke-miterlimit="10" stroke-width="2"/>
    <circle id="Ellipse_25" data-name="Ellipse 25" cx="2.498" cy="2.498" r="2.498" transform="translate(12.03 7.284)" fill="none" stroke="#1a276c" stroke-linecap="round" stroke-linejoin="round" stroke-miterlimit="10" stroke-width="2"/>
  </g>
</svg>
