<svg xmlns="http://www.w3.org/2000/svg" xmlns:xlink="http://www.w3.org/1999/xlink" width="33.634" height="33.634" viewBox="0 0 33.634 33.634">
  <defs>
    <clipPath id="clip-path">
      <path id="path2997" d="M0-682.665H33.634v33.634H0Z" transform="translate(0 682.665)" fill="none"/>
    </clipPath>
  </defs>
  <g id="g2991" transform="translate(0 682.665)">
    <g id="g2993" transform="translate(0 -682.665)">
      <g id="g2995" clip-path="url(#clip-path)">
        <g id="g3001" transform="translate(16.16 0.985)">
          <path id="path3003" d="M-1.379-126.834a3.173,3.173,0,0,1-.071-.661,3.285,3.285,0,0,1,3.285-3.285,3.277,3.277,0,0,1,.715.083,3.28,3.28,0,0,1,3.227-2.711,3.273,3.273,0,0,1,3.248,2.925,3.26,3.26,0,0,1,1.35-.3,3.285,3.285,0,0,1,3.285,3.285,3.279,3.279,0,0,1-2.715,3.227,3.276,3.276,0,0,1,1.4,2.685,3.263,3.263,0,0,1-.531,1.782" transform="translate(1.451 133.406)" fill="none" stroke="#1a276c" stroke-linecap="round" stroke-linejoin="round" stroke-width="2"/>
        </g>
        <g id="g3005" transform="translate(21.233 6.898)">
          <path id="path3007" d="M-54.213,0a16.54,16.54,0,0,1-2.809,7.263" transform="translate(57.023)" fill="none" stroke="#1a276c" stroke-linecap="round" stroke-linejoin="round" stroke-width="2"/>
        </g>
        <g id="g3009" transform="translate(6.964 7.772)">
          <path id="path3011" d="M-84.884,0l-4.4.264" transform="translate(89.282)" fill="none" stroke="#1a276c" stroke-linecap="round" stroke-linejoin="round" stroke-width="2"/>
        </g>
        <g id="g3013" transform="translate(8.935 11.185)">
          <path id="path3015" d="M-84.884,0l-4.4.264" transform="translate(89.282)" fill="none" stroke="#1a276c" stroke-linecap="round" stroke-linejoin="round" stroke-width="2"/>
        </g>
        <g id="g3017" transform="translate(12.249 7.554)">
          <path id="path3019" d="M-144.005-176.027a5.23,5.23,0,0,0,1.7-3.867,5.255,5.255,0,0,0-5.255-5.255,5.236,5.236,0,0,0-3.911,1.753" transform="translate(151.468 185.149)" fill="none" stroke="#1a276c" stroke-linecap="round" stroke-linejoin="round" stroke-width="2"/>
        </g>
        <g id="g3021" transform="translate(2.365 2.956)">
          <path id="path3023" d="M-272.79-265.913a3.946,3.946,0,0,0-.212-.431l-6.569-11.378a3.942,3.942,0,0,0-5.384-1.443h0a3.941,3.941,0,0,0-1.443,5.384l3.48,6.028" transform="translate(286.926 279.693)" fill="none" stroke="#1a276c" stroke-linecap="round" stroke-linejoin="round" stroke-width="2"/>
        </g>
        <path id="path3025" d="M234.471-234.744H221.333V-240h13.138Z" transform="translate(-210.428 261.809)" fill="none" stroke="#1a276c" stroke-linecap="round" stroke-linejoin="round" stroke-width="2"/>
        <g id="g3027" transform="translate(4.336 14.124)">
          <path id="path3029" d="M-507.056,0a34.21,34.21,0,0,1-13.138,2.628A34.21,34.21,0,0,1-533.332,0c.594,5.545,1.188,11.2,1.782,16.764a1.97,1.97,0,0,0,1.96,1.761H-510.8a1.971,1.971,0,0,0,1.96-1.762Z" transform="translate(533.332)" fill="none" stroke="#1a276c" stroke-linecap="round" stroke-linejoin="round" stroke-width="2"/>
        </g>
      </g>
    </g>
  </g>
</svg>
