<svg xmlns="http://www.w3.org/2000/svg" width="760.887" height="151.831" viewBox="0 0 760.887 151.831">
  <g id="Group_210" data-name="Group 210" transform="translate(-579.912 -1377.169)">
    <g id="Group_205" data-name="Group 205" transform="translate(13.691)">
      <g id="Group_172" data-name="Group 172" transform="translate(583.854 1529) rotate(-111)">
        <g id="Group_170" data-name="Group 170" transform="translate(3.192 8.475)">
          <path id="Path_825" data-name="Path 825" d="M1.139,0,0,3.456C2.631,4.321,5.273,5.2,7.9,6.123L9.1,2.685C6.451,1.759,3.791.872,1.139,0ZM17.022,5.586l-1.315,3.4c2.584,1,5.139,2.047,7.651,3.168l1.481-3.323C22.27,7.68,19.657,6.606,17.022,5.586Zm15.461,6.945-1.7,3.215c2.508,1.33,4.894,2.721,7.089,4.145l1.975-3.06C37.562,15.353,35.086,13.908,32.483,12.531Zm14.3,9.306L44.5,24.67a67.347,67.347,0,0,1,5.547,5l.469.479,2.617-2.53-.5-.508A70.426,70.426,0,0,0,46.788,21.837Zm11.825,12.5L55.622,36.4a52.6,52.6,0,0,1,4.065,6.985l3.28-1.582A56.035,56.035,0,0,0,58.613,34.332Zm7.5,15.526-3.482,1.049a47.074,47.074,0,0,1,1.658,7.879l3.615-.433A50.334,50.334,0,0,0,66.109,49.859ZM64.466,66.78a34.039,34.039,0,0,1-1.535,7.778l3.464,1.128a37.736,37.736,0,0,0,1.7-8.614Zm-4.92,14.888c-.375.587-.779,1.161-1.2,1.723a34.842,34.842,0,0,1-3.9,4.325l2.5,2.645a38.29,38.29,0,0,0,4.3-4.779c.479-.631.926-1.276,1.355-1.932ZM48.122,92.715C46.161,94.041,43.93,95.4,41.1,96.993l1.788,3.172c2.912-1.643,5.226-3.053,7.269-4.437Zm-14.344,8.3c-2.209,1.207-4.808,2.66-7.338,4.249l1.935,3.082c2.451-1.535,4.988-2.955,7.15-4.141ZM19.44,110.3a38.542,38.542,0,0,0-6.055,6.329l2.912,2.184a34.83,34.83,0,0,1,5.489-5.727ZM9.089,124.351a34.438,34.438,0,0,0-2.076,8.567l3.622.407a30.483,30.483,0,0,1,1.849-7.659ZM10.6,141.308l-3.626.335a58.786,58.786,0,0,0,1.467,8.509l3.536-.869A54.963,54.963,0,0,1,10.6,141.308Zm3.752,15.807-3.431,1.225c.9,2.526,1.935,5.111,3.157,7.893l3.334-1.463C16.229,162.068,15.227,159.563,14.355,157.116Zm6.577,15.162-3.265,1.611,1.07,2.137c.883,1.744,1.773,3.528,2.642,5.341l3.283-1.571c-.883-1.838-1.78-3.644-2.678-5.417Zm7.2,15.238-3.359,1.4c1.139,2.728,2.083,5.251,2.883,7.706l3.46-1.128C30.285,192.947,29.312,190.338,28.133,187.516Zm5.2,16.269-3.572.721a48.8,48.8,0,0,1,.973,8l3.636-.123A52.521,52.521,0,0,0,33.33,203.785Zm-3.19,16.644a29.735,29.735,0,0,1-2.5,7.457L30.9,229.5a33.154,33.154,0,0,0,2.811-8.372Z" transform="translate(0 0)" fill="#fdf6ef"/>
        </g>
        <g id="Group_171" data-name="Group 171" transform="translate(0 0)">
          <path id="Path_826" data-name="Path 826" d="M19.933,0l1.5,3.321L5.063,10.683,13.6,26.472,10.4,28.2,0,8.971Z" transform="translate(0 0)" fill="#fdf6ef"/>
        </g>
      </g>
      <g id="Group_203" data-name="Group 203" transform="translate(1087.309 1443.719) rotate(-69)">
        <g id="Group_170-2" data-name="Group 170" transform="translate(3.192 0)">
          <path id="Path_825-2" data-name="Path 825" d="M1.139,229.5,0,226.04c2.631-.865,5.273-1.748,7.9-2.667l1.2,3.438C6.451,227.738,3.791,228.624,1.139,229.5Zm15.883-5.586-1.315-3.4c2.584-1,5.139-2.047,7.651-3.168l1.481,3.323C22.27,221.816,19.657,222.89,17.022,223.91Zm15.461-6.945-1.7-3.215c2.508-1.33,4.894-2.721,7.089-4.145l1.975,3.06C37.562,214.143,35.086,215.588,32.483,216.965Zm14.3-9.306L44.5,204.827a67.348,67.348,0,0,0,5.547-5l.469-.479,2.617,2.53-.5.508A70.426,70.426,0,0,1,46.788,207.659Zm11.825-12.5L55.622,193.1a52.6,52.6,0,0,0,4.065-6.985l3.28,1.582A56.035,56.035,0,0,1,58.613,195.164Zm7.5-15.526-3.482-1.049a47.074,47.074,0,0,0,1.658-7.879l3.615.433A50.334,50.334,0,0,1,66.109,179.638Zm-1.643-16.921a34.039,34.039,0,0,0-1.535-7.778l3.464-1.128a37.736,37.736,0,0,1,1.7,8.614Zm-4.92-14.888c-.375-.587-.779-1.161-1.2-1.723a34.842,34.842,0,0,0-3.9-4.325l2.5-2.645a38.291,38.291,0,0,1,4.3,4.779c.479.631.926,1.276,1.355,1.932ZM48.122,136.782c-1.961-1.326-4.192-2.685-7.017-4.278l1.788-3.172c2.912,1.643,5.226,3.053,7.269,4.437Zm-14.344-8.3c-2.209-1.207-4.808-2.66-7.338-4.249l1.935-3.082c2.451,1.535,4.988,2.955,7.15,4.141ZM19.44,119.2a38.542,38.542,0,0,1-6.055-6.329l2.912-2.184a34.83,34.83,0,0,0,5.489,5.727ZM9.089,105.145a34.438,34.438,0,0,1-2.076-8.567l3.622-.407a30.483,30.483,0,0,0,1.849,7.659ZM10.6,88.188l-3.626-.335a58.786,58.786,0,0,1,1.467-8.509l3.536.869A54.963,54.963,0,0,0,10.6,88.188Zm3.752-15.807-3.431-1.225c.9-2.526,1.935-5.111,3.157-7.893l3.334,1.463C16.229,67.429,15.227,69.933,14.355,72.381Zm6.577-15.162-3.265-1.611,1.07-2.137c.883-1.744,1.773-3.528,2.642-5.341L24.663,49.7c-.883,1.838-1.78,3.644-2.678,5.417Zm7.2-15.238-3.359-1.4c1.139-2.728,2.083-5.251,2.883-7.706L31.117,34C30.285,36.549,29.312,39.158,28.133,41.98Zm5.2-16.269-3.572-.721a48.8,48.8,0,0,0,.973-8l3.636.123A52.521,52.521,0,0,1,33.33,25.711ZM30.141,9.068a29.735,29.735,0,0,0-2.5-7.457L30.9,0a33.154,33.154,0,0,1,2.811,8.372Z" transform="translate(0)" fill="#fdf6ef"/>
        </g>
        <g id="Group_171-2" data-name="Group 171" transform="translate(0 209.77)">
          <path id="Path_826-2" data-name="Path 826" d="M19.933,28.2l1.5-3.321L5.063,17.519,13.6,1.73,10.4,0,0,19.231Z" transform="translate(0 0)" fill="#fdf6ef"/>
        </g>
      </g>
    </g>
    <g id="Group_204" data-name="Group 204" transform="translate(23.826 -12)">
      <path id="Path_835" data-name="Path 835" d="M6943.824,1409.382v118.541" transform="translate(-6009)" fill="none" stroke="#fdf6ef" stroke-width="3" stroke-dasharray="8"/>
      <path id="Path_836" data-name="Path 836" d="M19.933,0l1.5,3.321L5.063,10.683,13.6,26.472,10.4,28.2,0,8.971Z" transform="translate(926.854 1541) rotate(-111)" fill="#fdf6ef"/>
    </g>
  </g>
</svg>
